<?xml version="1.0" encoding="UTF-8"?>
<svg width="36px" height="55px" viewBox="0 0 36 55" version="1.1" xmlns="http://www.w3.org/2000/svg" xmlns:xlink="http://www.w3.org/1999/xlink">
    <!-- Generator: Sketch 53.2 (72643) - https://sketchapp.com -->
    <title>Fill 1[1X]</title>
    <desc>Created with Sketch.</desc>
    <g id="Page-1" stroke="none" stroke-width="1" fill="none" fill-rule="evenodd">
        <g id="REMOTE-RECREATION-—-CONTACT-US" transform="translate(-1080.000000, -510.000000)" fill="#FFFFFF">
            <g id="Group-5" transform="translate(1030.000000, 455.000000)">
                <g id="Group-4">
                    <g id="Padding-Group-3">
                        <path d="M56.6908276,57 C55.5372828,57 54.4930211,57.482813 53.7462526,58.2587625 C53.0237693,59.0059732 52.5805652,60.029077 52.5805652,61.1498929 L52.5805652,63.3742815 L52.5805652,98.9989857 L52.5805652,103.850107 C52.5805652,104.970923 53.0237693,105.988279 53.7462526,106.73549 C54.4930211,107.517187 55.5372828,108 56.6908276,108 L79.4703028,108 C80.6238476,108 81.6681093,107.517187 82.4148778,106.73549 C83.1373611,105.988279 83.5805652,104.970923 83.5805652,103.850107 L83.5805652,98.9989857 L83.5805652,63.3742815 L83.5805652,61.1498929 C83.5805652,60.029077 83.1373611,59.0059732 82.4148778,58.2587625 C81.6681093,57.482813 80.6238476,57 79.4703028,57 L56.6908276,57 Z M80.9638398,100.234757 L55.1972906,100.234757 L55.1972906,103.850107 C55.1972906,104.33292 55.3794293,104.764003 55.6769224,105.074383 C55.9440591,105.344528 56.3022652,105.516962 56.6908276,105.516962 L79.4703028,105.516962 C79.8588652,105.516962 80.2170713,105.344528 80.484208,105.074383 C80.7817011,104.764003 80.9638398,104.33292 80.9638398,103.850107 L80.9638398,100.234757 Z M55.1972906,97.7632142 L80.9638398,97.7632142 L80.9638398,64.6158007 L55.1972906,64.6158007 L55.1972906,97.7632142 Z M55.1972906,62.1327623 L80.9638398,62.1327623 L80.9638398,61.1498929 C80.9638398,60.6670799 80.7817011,60.2302491 80.484208,59.925617 C80.2170713,59.6497239 79.8588652,59.4772907 79.4703028,59.4772907 L56.6908276,59.4772907 C56.3022652,59.4772907 55.9440591,59.6497239 55.6769224,59.925617 C55.3794293,60.2302491 55.1972906,60.6670799 55.1972906,61.1498929 L55.1972906,62.1327623 Z M67.0484461,104.28119 C66.3198915,104.28119 65.7370478,103.723656 65.7370478,103.045419 C65.7370478,102.355686 66.3198915,101.803899 67.0484461,101.803899 L69.1126843,101.803899 C69.8412389,101.803899 70.4240826,102.355686 70.4240826,103.045419 C70.4240826,103.723656 69.8412389,104.28119 69.1126843,104.28119 L67.0484461,104.28119 Z" id="Fill-1" transform="translate(68.080565, 82.500000) rotate(6.000000) translate(-68.080565, -82.500000) "></path>
                    </g>
                </g>
            </g>
        </g>
    </g>
</svg>